HIERARCHY
ROOT Hips
{
	OFFSET 0.00000 0.00000 0.00000
	CHANNELS 6 Xposition Yposition Zposition Zrotation Yrotation Xrotation 
	JOINT LHipJoint
	{
		OFFSET 0 0 0
		CHANNELS 3 Zrotation Yrotation Xrotation
		JOINT LeftHip
		{
			OFFSET 1.38280 -1.96574 0.54427
			CHANNELS 3 Zrotation Yrotation Xrotation
			JOINT LeftKnee
			{
				OFFSET 2.72096 -7.47578 0.00000
				CHANNELS 3 Zrotation Yrotation Xrotation
				JOINT LeftAnkle
				{
					OFFSET 2.73041 -7.50176 0.00000
					CHANNELS 3 Zrotation Yrotation Xrotation
					JOINT LeftToe
					{
						OFFSET 0.16150 -0.44371 2.18031
						CHANNELS 3 Zrotation Yrotation Xrotation
						End Site
						{
							OFFSET 0.00000 -0.00000 1.12127
						}
					}
				}
			}
		}
	}
	JOINT RHipJoint
	{
		OFFSET 0 0 0
		CHANNELS 3 Zrotation Yrotation Xrotation
		JOINT RightHip
		{
			OFFSET -1.57224 -1.96575 0.54427
			CHANNELS 3 Zrotation Yrotation Xrotation
			JOINT RightKnee
			{
				OFFSET -2.95935 -8.13076 0.00000
				CHANNELS 3 Zrotation Yrotation Xrotation
				JOINT RightAnkle
				{
					OFFSET -2.52345 -6.93311 0.00000
					CHANNELS 3 Zrotation Yrotation Xrotation
					JOINT RightToe
					{
						OFFSET -0.04475 -0.10171 1.86688
						CHANNELS 3 Zrotation Yrotation Xrotation
						End Site
						{
							OFFSET -0.00000 -0.00000 0.95157
						}
					}
				}
			}
		}
	}
	JOINT lowerback
	{
		OFFSET 0 0 0
		CHANNELS 3 Zrotation Yrotation Xrotation
		JOINT Chest
		{
			OFFSET 0.00669 2.07367 0.09104
			CHANNELS 3 Zrotation Yrotation Xrotation
			JOINT Chest2
			{
				OFFSET -0.00664 2.06198 -0.04732
				CHANNELS 3 Zrotation Yrotation Xrotation
				JOINT lowerneck
				{
					OFFSET 0 0 0
					CHANNELS 3 Zrotation Yrotation Xrotation
					JOINT Neck
					{
						OFFSET -0.00021 1.49948 0.16345
						CHANNELS 3 Zrotation Yrotation Xrotation
						JOINT Head
						{
							OFFSET 0.06080 1.50567 -0.26702
							CHANNELS 3 Zrotation Yrotation Xrotation
							End Site
							{
								OFFSET 0.01726 1.56470 -0.11854
							}
						}
					}
				}
				JOINT LeftCollar
				{
					OFFSET 0 0 0
					CHANNELS 3 Zrotation Yrotation Xrotation
					JOINT LeftShoulder
					{
						OFFSET 3.14993 0.82932 -0.22488
CHANNELS 3 Zrotation Xrotation Yrotation
						JOINT LeftElbow
						{
OFFSET 0 -5.682360 -0.000000
CHANNELS 3 Zrotation Xrotation Yrotation
							JOINT LeftWrist
							{
OFFSET 0 -3.171120 0.000000
CHANNELS 3 Zrotation Xrotation Yrotation
								JOINT lhand
								{
									OFFSET 0 0 0
CHANNELS 3 Zrotation Xrotation Yrotation
									JOINT LFingers
									{
OFFSET 0 -0.632690 0.000000
CHANNELS 3 Zrotation Xrotation Yrotation
										End Site
										{
OFFSET 0 -0.510090 0.000000
										}
									}
								}
								JOINT LThumb
								{
OFFSET 0 0.000000 0.000000
CHANNELS 3 Zrotation Xrotation Yrotation
									End Site
									{
OFFSET 0 -0.517880 0.517880
									}
								}
							}
						}
					}
				}
				JOINT RightCollar
				{
					OFFSET 0 0 0
					CHANNELS 3 Zrotation Yrotation Xrotation
					JOINT RightShoulder
					{
						OFFSET -3.10571 0.91279 -0.33334
CHANNELS 3 Zrotation Xrotation Yrotation
						JOINT RightElbow
						{
OFFSET 0 -5.871200 -0.000000
CHANNELS 3 Zrotation Xrotation Yrotation
							JOINT RightWrist
							{
OFFSET 0 -3.375890 0.000000
CHANNELS 3 Zrotation Xrotation Yrotation
								JOINT rhand
								{
									OFFSET 0 0 0
CHANNELS 3 Zrotation Xrotation Yrotation
									JOINT RFingers
									{
OFFSET 0 -0.603260 0.000000
CHANNELS 3 Zrotation Xrotation Yrotation
										End Site
										{
OFFSET 0 -0.486360 0.000000
										}
									}
								}
								JOINT RThumb
								{
OFFSET 0 0.000000 0.000000
CHANNELS 3 Zrotation Xrotation Yrotation
									End Site
									{
OFFSET 0 -0.493790 0.493790
									}
								}
							}
						}
					}
				}
			}
		}
	}
}
MOTION
Frames: 7
Frame Time: 0.008333333333333333
7.275100 18.299300 -2.123600 142.148000 -85.928100 -132.674000 0.000000 0.000000 0.000000 -23.704600 -8.873700 -16.900500 2.729000 10.242800 29.766800 1.777400 -1.085500 -24.907300 0.841900 -5.852800 -16.357800 0.000000 0.000000 0.000000 18.577200 10.804400 -10.233200 -2.413500 -9.679000 27.943200 0.855200 -17.292200 0.302200 -12.252600 18.495400 -66.787300 -3.458600 -0.040300 -11.983300 -0.763100 0.447000 -0.044700 1.223700 0.103900 6.666800 -2.865300 -1.116400 -20.255000 2.644800 -1.299600 17.949000 1.199700 -0.527700 9.004200 -0.000000 0.000000 0.000000 -0.732800 -1.974600 -37.347300 17.975500 -28.125800 4.537700 19.672000 -6.046500 -30.187300 0.000000 0.000000 0.000000 -7.125000 0.000000 0.000000 -13.729000 61.165000 5.463900 -0.000000 0.000000 0.000000 -3.523200 3.820800 8.635000 -14.520200 -23.473500 -3.032200 -20.731700 9.866700 -29.493300 0.000000 0.000000 0.000000 7.125000 0.000000 -0.000000 5.875500 -1.039900 6.012700
7.019908 18.014073 -1.821362 166.485613 -83.473144 -157.126648 0.000000 0.000000 0.000000 -23.929412 -7.135898 -19.423669 3.817776 11.913900 35.428055 2.253946 -3.476306 -27.548046 0.808668 -5.738962 -16.028976 0.000000 0.000000 0.000000 17.566153 10.919315 -18.746058 -5.895012 -14.322352 44.552214 0.827106 -16.135569 -2.804158 -11.698643 18.260274 -65.030204 -4.547162 -0.335548 -10.626594 -0.474021 0.141621 0.528299 2.086124 -0.085765 6.523369 -2.009793 0.327418 -20.778805 1.424668 0.727137 17.369726 0.912051 0.352584 8.843165 0.000000 0.000000 0.000000 2.802104 -4.169819 -49.237762 24.092074 -35.261162 7.759762 15.394515 -9.018842 -30.945157 0.000000 0.000000 0.000000 -7.125000 0.000000 0.000000 -18.968737 60.851169 7.481962 0.000000 0.000000 0.000000 -4.214601 0.451332 14.611673 -19.150790 -29.604502 -5.105667 -22.183818 3.178898 -29.145319 0.000000 0.000000 0.000000 7.125000 0.000000 0.000000 4.985834 -0.972693 5.088949
6.548978 18.049709 -1.539658 175.656219 -82.038368 -167.717446 0.000000 0.000000 0.000000 -24.817054 -5.701150 -15.333327 3.433447 11.365706 33.523480 2.428425 -1.821670 -29.015041 0.958786 -6.234990 -17.467818 0.000000 0.000000 0.000000 15.137818 14.118354 -30.635636 -10.520286 -17.692253 61.213518 0.149735 -7.812890 1.165044 -11.003424 17.936785 -62.792700 -4.066754 -1.059337 -8.024651 0.484526 -1.029335 1.407519 2.659708 -0.659049 6.066685 -1.067418 2.122511 -20.669999 -0.571917 3.337781 19.458473 0.440436 1.368603 9.556376 0.000000 0.000000 0.000000 3.040384 -6.455474 -45.943861 19.959457 -30.593051 5.510859 16.096557 -8.516197 -31.259157 0.000000 0.000000 0.000000 -7.125000 0.000000 0.000000 -18.456807 61.318041 7.477067 0.000000 0.000000 0.000000 -5.481350 0.544076 19.972914 -25.092429 -36.298374 -8.344589 -23.437975 -2.574398 -29.726973 0.000000 0.000000 0.000000 7.125000 0.000000 0.000000 4.339785 -1.835606 4.489301
5.759722 18.064776 -1.367734 176.217514 -82.051209 -168.654558 0.000000 0.000000 0.000000 -26.237532 -4.659958 -9.969109 2.651996 10.108971 29.330633 2.625211 -1.175388 -30.373753 0.957492 -6.231013 -17.456114 0.000000 0.000000 0.000000 11.491621 16.929119 -37.584020 -7.751364 -15.931294 51.658796 -0.056698 -1.083210 4.247850 -10.025022 17.423902 -59.571913 -3.437888 -1.231630 -7.350211 1.176853 -1.385030 1.635764 2.992029 -0.827443 5.952167 -0.860620 2.526231 -19.818720 -0.684282 3.829366 21.169810 0.437419 1.556661 10.013357 0.000000 0.000000 0.000000 3.349787 -6.386427 -40.867133 14.961460 -24.092395 3.210150 15.175420 -4.728761 -33.564658 0.000000 0.000000 0.000000 -7.125000 0.000000 0.000000 -21.466826 63.231144 9.726098 0.000000 0.000000 0.000000 -5.064604 2.136347 15.325155 -22.623406 -33.673260 -6.928853 -25.015559 -1.995164 -29.651909 0.000000 0.000000 0.000000 7.125000 0.000000 0.000000 3.417643 -2.106776 3.547170
4.761213 18.076089 -1.353538 168.314644 -82.946094 -160.390780 0.000000 0.000000 0.000000 -27.660235 -2.255616 -3.640087 1.581959 7.934730 22.516198 2.354878 -2.442357 -28.407666 0.864004 -5.926934 -16.572703 0.000000 0.000000 0.000000 7.392809 19.985479 -37.347624 -2.353122 -9.564676 27.579026 -0.025911 0.562198 -2.893152 -11.132419 17.999242 -63.210813 -3.362621 -1.300230 -6.761181 1.327482 -1.510988 1.964700 3.098334 -0.896592 5.975457 -1.313406 2.238032 -19.548846 -0.758052 3.580197 19.003418 0.431039 1.452530 9.194797 0.000000 0.000000 0.000000 5.131152 -1.424725 -38.142136 16.370991 -26.021083 3.807299 14.806855 -6.670883 -32.312521 0.000000 0.000000 0.000000 -7.125000 0.000000 0.000000 -20.731350 61.982966 8.768371 0.000000 0.000000 0.000000 -3.953633 3.547057 4.190407 -15.697060 -25.108008 -3.516561 -22.728464 7.569842 -28.876889 0.000000 0.000000 0.000000 7.125000 0.000000 0.000000 4.632053 -0.807623 4.712198
3.507228 18.004709 -1.538473 156.037134 -84.975112 -146.910783 0.000000 0.000000 0.000000 -27.347429 -0.820811 0.530093 1.244085 7.072339 19.929929 1.926861 -3.978371 -25.296956 0.978306 -6.295772 -17.645172 0.000000 0.000000 0.000000 6.058442 22.303889 -35.928174 -1.197681 -6.943830 19.549120 -0.025429 3.449547 -3.491570 -12.242564 18.491278 -66.755526 -2.921677 -1.061231 -6.724746 1.420432 -1.238588 2.014996 2.980215 -0.749067 5.976310 -1.800453 1.736798 -19.622335 -0.280182 2.929757 17.449189 0.576806 1.204087 8.658794 0.000000 0.000000 0.000000 4.892857 1.416257 -32.466671 14.541273 -23.503087 3.040694 16.340155 -4.559630 -32.637707 0.000000 0.000000 0.000000 -7.125000 0.000000 0.000000 -19.338354 62.674843 8.469629 0.000000 0.000000 0.000000 -2.549644 8.031927 -5.999012 -13.163498 -21.526273 -2.512915 -20.447982 13.757424 -27.934242 0.000000 0.000000 0.000000 7.125000 0.000000 0.000000 5.853070 0.609820 5.820994
1.895179 17.998450 -1.894883 135.661073 -87.372820 -124.785689 0.000000 0.000000 0.000000 -24.837165 -0.041229 3.024909 1.409373 7.508612 21.231351 1.110698 -3.885853 -19.003812 1.436428 -7.577305 -21.437346 0.000000 0.000000 0.000000 7.004733 24.564492 -35.422220 -1.971004 -8.804836 25.187049 0.071874 9.624272 -5.417399 -13.376927 18.914065 -70.292272 -1.099544 -1.050058 -6.975907 1.796794 -1.413642 1.959129 2.322060 -0.777682 6.034463 -1.805411 1.563430 -20.182978 -0.853852 2.805732 15.021739 0.356953 1.127549 7.946024 0.000000 0.000000 0.000000 3.203770 5.007718 -27.338468 14.434421 -23.352280 2.998150 17.938538 -3.360017 -33.004593 0.000000 0.000000 0.000000 -7.125000 0.000000 0.000000 -17.877649 63.436130 8.126835 0.000000 0.000000 0.000000 -2.331095 10.373327 -10.052623 -13.069017 -21.388258 -2.478351 -18.275552 14.921530 -27.150601 0.000000 0.000000 0.000000 7.125000 0.000000 0.000000 7.059925 1.794704 6.888281
